<svg xmlns="http://www.w3.org/2000/svg" width="52.525" height="49.856" viewBox="0 0 52.525 49.856">
  <g id="Group_582" data-name="Group 582" transform="translate(-10828.894 195)">
    <g id="groups_black_24dp" transform="translate(10838.743 -179.137)">
      <rect id="Rectangle_323" data-name="Rectangle 323" width="32.86" height="33.993" transform="translate(0.469 0)" fill="none"/>
      <g id="Group_488" data-name="Group 488" transform="translate(0 8.728)">
        <path id="Path_334" data-name="Path 334" d="M5.608,15.814a2.8,2.8,0,1,0-2.8-2.8A2.812,2.812,0,0,0,5.608,15.814Zm1.584,1.542a9.79,9.79,0,0,0-1.584-.14,9.745,9.745,0,0,0-3.9.813A2.819,2.819,0,0,0,0,20.623v2.2H6.309V20.567A6.307,6.307,0,0,1,7.193,17.357Zm20.848-1.542a2.8,2.8,0,1,0-2.8-2.8A2.812,2.812,0,0,0,28.041,15.814Zm5.608,4.809a2.819,2.819,0,0,0-1.71-2.594,9.531,9.531,0,0,0-5.482-.673,6.307,6.307,0,0,1,.883,3.211v2.257h6.309Zm-10.88-3.9a14.642,14.642,0,0,0-5.945-1.262,14.877,14.877,0,0,0-5.945,1.262,4.189,4.189,0,0,0-2.468,3.842v2.257H25.237V20.567A4.189,4.189,0,0,0,22.769,16.726ZM11.315,20.02c.126-.322.182-.547,1.276-.967a11.81,11.81,0,0,1,8.468,0c1.08.421,1.136.645,1.276.967ZM16.825,8.8a1.4,1.4,0,1,1-1.4,1.4,1.406,1.406,0,0,1,1.4-1.4m0-2.8a4.206,4.206,0,1,0,4.206,4.206A4.2,4.2,0,0,0,16.825,6Z" transform="translate(0 -6)" fill="#fff"/>
      </g>
    </g>
    <g id="lightbulb_black_24dp" transform="translate(10843.667 -195)">
      <path id="Path_335" data-name="Path 335" d="M0,0H23.64V23.64H0Z" fill="none"/>
      <path id="Path_336" data-name="Path 336" d="M9.878,21.963a1.148,1.148,0,0,0,1.22,1.051h4.878a1.148,1.148,0,0,0,1.22-1.051V20.912H9.878ZM13.537,2C8.829,2,5,5.3,5,9.355a7.121,7.121,0,0,0,3.659,6.031V17.76a1.148,1.148,0,0,0,1.22,1.051H17.2a1.148,1.148,0,0,0,1.22-1.051V15.386a7.121,7.121,0,0,0,3.659-6.031C22.074,5.3,18.244,2,13.537,2Zm3.476,11.663-1.037.63V16.71H11.1V14.293l-1.037-.63A5.083,5.083,0,0,1,7.439,9.355c0-2.9,2.732-5.253,6.1-5.253s6.1,2.354,6.1,5.253A5.083,5.083,0,0,1,17.012,13.663Z" transform="translate(-1.717 -0.687)" fill="#fff"/>
    </g>
    <g id="lightbulb_black_24dp-2" data-name="lightbulb_black_24dp" transform="translate(10863.363 -186.132)">
      <path id="Path_335-2" data-name="Path 335" d="M0,0H18.056V18.056H0Z" fill="none"/>
      <path id="Path_336-2" data-name="Path 336" d="M8.726,17.247a.877.877,0,0,0,.931.8h3.726a.877.877,0,0,0,.931-.8v-.8H8.726ZM11.52,2C7.925,2,5,4.52,5,7.617a5.439,5.439,0,0,0,2.794,4.606v1.814a.877.877,0,0,0,.931.8h5.589a.877.877,0,0,0,.931-.8V12.224A5.439,5.439,0,0,0,18.04,7.617C18.04,4.52,15.115,2,11.52,2Zm2.655,8.907-.792.481v1.846H9.657V11.389l-.792-.481a3.882,3.882,0,0,1-2-3.29C6.863,5.4,8.949,3.6,11.52,3.6s4.657,1.8,4.657,4.012A3.882,3.882,0,0,1,14.175,10.907Z" transform="translate(-2.492 -0.997)" fill="#fff"/>
    </g>
    <g id="lightbulb_black_24dp-3" data-name="lightbulb_black_24dp" transform="translate(10828.894 -186.132)">
      <path id="Path_335-3" data-name="Path 335" d="M0,0H18.056V18.056H0Z" fill="none"/>
      <path id="Path_336-3" data-name="Path 336" d="M8.726,17.247a.877.877,0,0,0,.931.8h3.726a.877.877,0,0,0,.931-.8v-.8H8.726ZM11.52,2C7.925,2,5,4.52,5,7.617a5.439,5.439,0,0,0,2.794,4.606v1.814a.877.877,0,0,0,.931.8h5.589a.877.877,0,0,0,.931-.8V12.224A5.439,5.439,0,0,0,18.04,7.617C18.04,4.52,15.115,2,11.52,2Zm2.655,8.907-.792.481v1.846H9.657V11.389l-.792-.481a3.882,3.882,0,0,1-2-3.29C6.863,5.4,8.949,3.6,11.52,3.6s4.657,1.8,4.657,4.012A3.882,3.882,0,0,1,14.175,10.907Z" transform="translate(-2.492 -0.997)" fill="#fff"/>
    </g>
  </g>
</svg>
