<svg xmlns="http://www.w3.org/2000/svg" width="47.716" height="46.847" viewBox="0 0 47.716 46.847">
  <g id="Group_596" data-name="Group 596" transform="translate(-77.31 -314.576)">
    <path id="Path_381" data-name="Path 381" d="M9721.415,412.862v-9.7l-7.581-7.581h-23.646v42.847h31.228V429.08" transform="translate(-9610.878 -79.009)" fill="none" stroke="#fff" stroke-linejoin="round" stroke-width="4"/>
    <g id="Ellipse_39" data-name="Ellipse 39" transform="translate(104.025 331.696)" fill="none" stroke="#fff" stroke-width="4">
      <circle cx="10.5" cy="10.5" r="10.5" stroke="none"/>
      <circle cx="10.5" cy="10.5" r="8.5" fill="none"/>
    </g>
    <text id="_" data-name="$" transform="translate(114.525 345.696)" fill="#fff" font-size="16" font-family="Helvetica"><tspan x="-4.449" y="0">$</tspan></text>
    <path id="Path_382" data-name="Path 382" d="M9692.207,400.85h12.015" transform="translate(-9608.023 -76.55)" fill="none" stroke="#fff" stroke-linecap="round" stroke-width="2"/>
    <path id="Path_383" data-name="Path 383" d="M9692.207,408.727h19.569" transform="translate(-9608.023 -78.88)" fill="none" stroke="#fff" stroke-linecap="round" stroke-width="2"/>
    <path id="Path_384" data-name="Path 384" d="M9692.207,408.727h19.569" transform="translate(-9608.023 -56.119)" fill="none" stroke="#fff" stroke-linecap="round" stroke-width="2"/>
    <path id="Path_385" data-name="Path 385" d="M9692.207,416.809h16.077" transform="translate(-9608.023 -81.271)" fill="none" stroke="#fff" stroke-linecap="round" stroke-width="2"/>
    <path id="Path_386" data-name="Path 386" d="M9692.207,416.809h14.659" transform="translate(-9608.023 -75.581)" fill="none" stroke="#fff" stroke-linecap="round" stroke-width="2"/>
    <path id="Path_387" data-name="Path 387" d="M9692.207,416.809h16.077" transform="translate(-9608.023 -69.891)" fill="none" stroke="#fff" stroke-linecap="round" stroke-width="2"/>
    <path id="Path_388" data-name="Path 388" d="M9719,390.88v7.947h7.319" transform="translate(-9615.95 -74.304)" fill="none" stroke="#fff" stroke-width="3"/>
  </g>
</svg>
