<svg xmlns="http://www.w3.org/2000/svg" width="109.257" height="35.863" viewBox="0 0 109.257 35.863">
  <g id="Group_482" data-name="Group 482" transform="translate(-1807 -345.137)">
    <g id="Group_18" data-name="Group 18" transform="translate(1807 345.137)">
      <path id="Path_7" data-name="Path 7" d="M432.128,223.208h14.591l1.805-5.692H388.966c-8.045,0-14.01,4.847-16.917,13.549s-.125,13.536,7.9,13.536H400.2l-.031-.032a3.127,3.127,0,0,0,.471.032h.114a4.113,4.113,0,0,0,3.976-3.088l.017,0,3.815-11.72c.285-1.33-.857-1.485-1.336-1.493h-.056l.049,0H390.82l-1.833,5.55h6.676l-1.639,4.98H387.6c-4.28,0-5.258-2.855-3.627-7.762a13.454,13.454,0,0,1,3.222-5.536,7.735,7.735,0,0,1,3.032-1.836,8.3,8.3,0,0,1,2.524-.384H411.9a18.072,18.072,0,0,1,4.984-3.648h2.677a18.248,18.248,0,0,0-3.472,2.713,9.048,9.048,0,0,0-.748.859l-.056.076a23.851,23.851,0,0,0-3.943,7.663c-2.807,8.728.062,13.561,8.2,13.561h10.867l-.017-.01s5.188.008,5.318.01h1.678a3.394,3.394,0,0,0,3.281-2.508l1.041-3.279h-14.6a5.2,5.2,0,0,1-3-.756c-1.674-1.151-1.85-3.577-.759-7.017C424.945,226.051,427.814,223.208,432.128,223.208Z" transform="translate(-339.268 -208.774)" fill="#fff"/>
      <g id="Group_9" data-name="Group 9" transform="translate(0 0)">
        <g id="Group_8" data-name="Group 8" transform="translate(0)">
          <g id="Group_7" data-name="Group 7">
            <g id="Group_6" data-name="Group 6">
              <path id="Path_8" data-name="Path 8" d="M321.9,192.077c-1.592,3.837-2.5,6.13-2.2,9.4.325,3.488,2.7,6.281,4.872,8.618,1.752,1.882,2.815,3.073,3.3,5.238a9.331,9.331,0,0,1-1.526,7.728,9.824,9.824,0,0,1-7.041,3.781v1.1s5.183-.208,8.706-3.408a11.726,11.726,0,0,0,3.945-7.125,13.828,13.828,0,0,0-1.691-8.918,25.294,25.294,0,0,0-2.793-3.939,65.224,65.224,0,0,1-4.33-5.278,7.909,7.909,0,0,1-1.754-4.31,9.081,9.081,0,0,1,.543-2.77Z" transform="translate(-305.38 -192.077)" fill="#fff"/>
              <path id="Path_9" data-name="Path 9" d="M289.034,192.077c1.592,3.837,2.5,6.13,2.195,9.4-.321,3.488-2.7,6.281-4.869,8.618-1.754,1.882-2.816,3.073-3.3,5.238a9.33,9.33,0,0,0,1.529,7.728,9.826,9.826,0,0,0,7.044,3.781v1.1s-5.185-.208-8.712-3.408a11.748,11.748,0,0,1-3.945-7.125,13.864,13.864,0,0,1,1.692-8.918,25.11,25.11,0,0,1,2.792-3.939,64.059,64.059,0,0,0,4.328-5.278,7.888,7.888,0,0,0,1.755-4.31,9.081,9.081,0,0,0-.543-2.77Z" transform="translate(-278.79 -192.077)" fill="#fff"/>
              <path id="Path_10" data-name="Path 10" d="M303.2,225.9a32.137,32.137,0,0,0,4.227,5.074,8.493,8.493,0,1,1-11.926.087,33.189,33.189,0,0,0,4.286-5.161,13.4,13.4,0,0,0,1.719-4.151A13.3,13.3,0,0,0,303.2,225.9" transform="translate(-288.124 -211.554)" fill="#fff"/>
              <path id="Path_11" data-name="Path 11" d="M311.408,253.078a6.939,6.939,0,1,1-6.94-6.941,6.94,6.94,0,0,1,6.94,6.941" transform="translate(-291.089 -227.559)" fill="#0057b8"/>
            </g>
          </g>
        </g>
      </g>
    </g>
  </g>
</svg>
