<svg xmlns="http://www.w3.org/2000/svg" xmlns:xlink="http://www.w3.org/1999/xlink" width="109.257" height="35.863" viewBox="0 0 109.257 35.863">
  <defs>
    <clipPath id="clip-path">
      <rect id="Rectangle_367" data-name="Rectangle 367" width="109.257" height="35.863" transform="translate(0 0)" fill="none"/>
    </clipPath>
  </defs>
  <g id="Group_502" data-name="Group 502" transform="translate(0 0)">
    <g id="Group_501" data-name="Group 501" transform="translate(0 0)" clip-path="url(#clip-path)">
      <path id="Path_373" data-name="Path 373" d="M153.339,31.131H167.93l1.806-5.692H110.176c-8.045,0-14.01,4.847-16.917,13.549s-.125,13.536,7.9,13.536h20.246l-.031-.032a3.128,3.128,0,0,0,.47.032h.113a4.114,4.114,0,0,0,3.976-3.088l.017,0,3.815-11.72c.285-1.33-.858-1.485-1.336-1.494h-.056l.048,0H112.03L110.2,41.77h6.676l-1.639,4.98h-6.426c-4.28,0-5.258-2.855-3.627-7.762a13.453,13.453,0,0,1,3.222-5.536,7.731,7.731,0,0,1,3.032-1.835,8.3,8.3,0,0,1,2.524-.384h19.151a18.073,18.073,0,0,1,4.984-3.648h2.677A18.222,18.222,0,0,0,137.3,30.3a8.995,8.995,0,0,0-.748.859l-.056.076a23.86,23.86,0,0,0-3.943,7.663c-2.807,8.728.062,13.561,8.2,13.561h10.867l-.017-.01s5.188.008,5.318.01H158.6a3.393,3.393,0,0,0,3.281-2.508l1.041-3.279h-14.6a5.2,5.2,0,0,1-3-.756c-1.675-1.151-1.85-3.577-.759-7.017,1.593-4.92,4.462-7.764,8.776-7.764" transform="translate(-60.478 -16.697)" fill="#004a9c"/>
      <path id="Path_374" data-name="Path 374" d="M43.107,0c-1.592,3.837-2.5,6.13-2.2,9.4.325,3.488,2.7,6.281,4.872,8.618,1.752,1.882,2.815,3.073,3.3,5.238a9.333,9.333,0,0,1-1.527,7.729,9.824,9.824,0,0,1-7.04,3.781v1.1s5.182-.208,8.706-3.408a11.726,11.726,0,0,0,3.945-7.125,13.828,13.828,0,0,0-1.691-8.918,25.306,25.306,0,0,0-2.792-3.939A65.314,65.314,0,0,1,44.351,7.2,7.912,7.912,0,0,1,42.6,2.885,9.086,9.086,0,0,1,43.14.115Z" transform="translate(-26.591 0)" fill="#00a1ed"/>
      <path id="Path_375" data-name="Path 375" d="M10.244,0c1.592,3.837,2.5,6.13,2.195,9.4-.321,3.488-2.7,6.281-4.869,8.618-1.754,1.882-2.816,3.073-3.3,5.238A9.331,9.331,0,0,0,5.8,30.982a9.826,9.826,0,0,0,7.044,3.781v1.1s-5.185-.208-8.712-3.408A11.749,11.749,0,0,1,.184,25.331a13.864,13.864,0,0,1,1.692-8.918,25.124,25.124,0,0,1,2.792-3.939A64.132,64.132,0,0,0,9,7.2a7.89,7.89,0,0,0,1.755-4.311A9.081,9.081,0,0,0,10.21.115Z" transform="translate(0 0)" fill="#00a1ed"/>
      <path id="Path_376" data-name="Path 376" d="M24.407,33.826A32.185,32.185,0,0,0,28.634,38.9a8.493,8.493,0,1,1-11.925.087,33.225,33.225,0,0,0,4.285-5.161,13.4,13.4,0,0,0,1.719-4.151,13.3,13.3,0,0,0,1.694,4.151" transform="translate(-9.335 -19.477)" fill="#001152"/>
      <path id="Path_377" data-name="Path 377" d="M32.618,61a6.939,6.939,0,1,1-6.94-6.94A6.94,6.94,0,0,1,32.618,61" transform="translate(-12.299 -35.482)" fill="#e50019"/>
    </g>
  </g>
</svg>
